<svg xmlns="http://www.w3.org/2000/svg" xmlns:xlink="http://www.w3.org/1999/xlink" width="60" height="22" viewBox="0 0 60 22">
    <defs>
        <path id="a" d="M.03.014h16.666V14.57H.03z"/>
        <path id="c" d="M0 .087h13.093V15.2H0z"/>
    </defs>
    <g fill="none" fill-rule="evenodd">
        <path fill="#FFF" d="M-311-579h714V656h-714z"/>
        <path fill="#FFF" d="M-158-9h375v40h-375z"/>
        <g transform="translate(1.607 6.342)">
            <mask id="b" fill="#fff">
                <use xlink:href="#a"/>
            </mask>
            <path fill="#2B2A35" d="M13.28 5.44c-.092.29-.074.68.158.904.23.22.548.208.84.186.566-.043 1.22-.206 1.765.012.696.28.794 1.018.488 1.628-.205.408-.54.698-.85 1.023-1.133 1.182-1.916 2.604-2.776 3.98-.352.564-.806 1.314-1.536 1.39-.651.07-1.376-.33-1.476-1.018-.102-.701.567-1.345 1.022-1.798.32-.318.618-.648.911-.992.339-.396.675-.791.985-1.211.363-.493.965-1.299.521-1.913-.323-.447-1.008-.37-1.454-.19-.584.235-1.043.71-1.42 1.2-.426.551-.722 1.206-1.075 1.804-.291.495-.579.99-1.064 1.32-.445.304-1.14.205-1.455-.25-.354-.517-.115-1.192.175-1.678.253-.423.632-.781.974-1.132.55-.563 1.106-1.121 1.639-1.7.266-.289.53-.578.772-.888.218-.28.548-.65.45-1.04-.183-.735-1.344-.469-1.82-.236-.698.34-1.232.92-1.747 1.484-.547.598-.998 1.276-1.448 1.948-.919 1.37-1.766 2.795-2.716 4.143-.394.56-.871 1.244-1.59 1.393-.753.156-1.424-.366-1.513-1.12-.074-.631.291-1.245.659-1.727.326-.427.662-.847 1.005-1.26a224.15 224.15 0 0 1 2.774-3.303 59.194 59.194 0 0 0 2.309-2.845c.423-.557.853-1.107 1.241-1.69.36-.542.737-1.122 1.266-1.515.43-.32 1.108-.495 1.573-.135.585.453.296 1.297.053 1.848-.232.525-.477 1.232.221 1.505.49.191 1.05.038 1.524.284.566.294.803.998.615 1.589" mask="url(#b)"/>
        </g>
        <g transform="translate(0 .02)">
            <mask id="d" fill="#fff">
                <use xlink:href="#c"/>
            </mask>
            <path fill="#2B2A35" d="M5.134 11.806a51.967 51.967 0 0 1 3.7-4.767c1.123-1.277 2.308-2.501 3.463-3.748.433-.467.78-1.01.796-1.665.015-.655-.456-1.198-1.13-1.184-.686.014-1.195.597-1.584 1.092-.45.572-.834 1.193-1.24 1.796-.382.57-.819 1.104-1.225 1.657-.451.615-.888 1.245-1.395 1.817-.389.438-.886 1.226-1.55 1.217-.257-.003-.447-.174-.542-.402-.134-.325-.002-.603.18-.871.304-.448.68-.85 1.052-1.241.345-.362.802-.708 1.002-1.177.185-.435.126-1.014-.203-1.363-.213-.226-.505-.362-.817-.27-.34.099-.585.448-.873.641-.188.127-.577.24-.695-.039-.11-.258.23-.553.383-.71.422-.433 1.172-.883 1.21-1.55C5.708.315 4.99-.065 4.36.142c-.638.21-1.095.743-1.469 1.275-.326.465-.896 1.28-.68 1.88.102.282.359.424.643.468.298.047.71-.117.972.059.596.399-.132 1.354-.402 1.734a13.045 13.045 0 0 1-1.387 1.63C1.507 7.721.917 8.221.44 8.804c-.375.458-.63 1.131-.257 1.673.42.608 1.2.503 1.662.02.483-.506.729-1.222 1.273-1.67.23-.19.532-.36.837-.251.34.12.437.464.353.785-.172.659-.803 1.216-1.258 1.689-.49.51-1.035.967-1.52 1.481-.427.452-.792 1.099-.728 1.743.032.33.212.637.505.8.575.321 1.249-.035 1.677-.429.681-.625 1.18-1.454 1.708-2.209l.442-.631z" mask="url(#d)"/>
        </g>
        <path fill="#2B2A35" d="M17.474 2.892c-.349.36-.732.686-1.083 1.044-.34.345-.876.88-.707 1.422.166.53.85.553 1.217.24.4-.343.737-.896 1.346-.737.577.15.74.828.625 1.342-.127.56-.55.912-.933 1.305a8.162 8.162 0 0 0-1.107 1.413c-.25.403-.51.823-1.037.864-.493.039-.912-.38-1.02-.84-.141-.608.223-1.116.58-1.564.28-.35.626-.876.204-1.264-.458-.422-1.087-.134-1.563.072-.511.222-1.073.17-1.373-.362-.263-.468-.057-1.042.225-1.447.463-.665 1.08-1.222 1.565-1.875.606-.816 1.01-2.14 2.254-2.043.5.039.976.408 1.165.87.215.527.027 1.162-.358 1.56M22.654 16.836h2.214V6.871l4.005 9.965h.793l3.931-9.965v9.965h2.454V3.641h-3.248l-3.395 9.006-3.47-9.006h-3.284v13.195zm14.828 0h2.233V7.185h-2.233v9.651zm1.09-11.238c.737 0 1.328-.554 1.328-1.274 0-.738-.59-1.292-1.329-1.292-.738 0-1.328.554-1.328 1.292 0 .72.59 1.274 1.328 1.274zm2.572 11.238h2.233v-5.684c0-1.531 1.015-2.306 2.27-2.306 1.328 0 1.919.664 1.919 2.122v5.868h2.233v-6.071c0-2.658-1.366-3.783-3.304-3.783-1.587 0-2.657.793-3.118 1.734V7.185h-2.233v9.651zm14.342.185c2.473 0 4.115-1.107 4.43-3.137h-2.16c-.166.94-.867 1.476-2.214 1.476-1.661 0-2.584-1.033-2.658-2.86h7.068v-.646c0-3.451-2.159-4.872-4.558-4.872-2.75 0-4.798 1.993-4.798 4.982v.148c0 3.045 2.048 4.909 4.89 4.909zm-2.565-6.016c.221-1.495 1.126-2.4 2.473-2.4 1.384 0 2.233.739 2.344 2.4H52.92z"/>
    </g>
</svg>
